PathFileType	4	(X/Y/Z)	/Users/itak/Documents/Research/Walk-IL/dataset/trc/00500_00183.trc
DataRate	CameraRate	NumFrames	NumMarkers	Units	OrigDataRate	OrigDataStartFrame	OrigNumFrames
100.000000	100.000000	4	53	mm	100.000000	179	718
Frame#	Time	RPSI			LPSI			L3			STRN			T10			C7			CLAV			RBAK			LBAK			LSHO			LUPA			LAEL			LAOL			LWTS			LWPS			LFRA			LIFD			LHPS			LHTS			RSHO			RUPA			RAEL			RAOL			RWTS			RWPS			RFRA			RIFD			RHTS			RHPS			RBHD			LFHD			RFHD			LBHD			LHIP			RHIP			RASI			LASI			LKNE			LTHI			LANK			LTIP			LTOE			LMT1			LMT5			LHEE			RKNE			RTHI			RANK			RTIP			RTOE			RMT1			RMT5			RHEE			
		X1	Y1	Z1	X2	Y2	Z2	X3	Y3	Z3	X4	Y4	Z4	X5	Y5	Z5	X6	Y6	Z6	X7	Y7	Z7	X8	Y8	Z8	X9	Y9	Z9	X10	Y10	Z10	X11	Y11	Z11	X12	Y12	Z12	X13	Y13	Z13	X14	Y14	Z14	X15	Y15	Z15	X16	Y16	Z16	X17	Y17	Z17	X18	Y18	Z18	X19	Y19	Z19	X20	Y20	Z20	X21	Y21	Z21	X22	Y22	Z22	X23	Y23	Z23	X24	Y24	Z24	X25	Y25	Z25	X26	Y26	Z26	X27	Y27	Z27	X28	Y28	Z28	X29	Y29	Z29	X30	Y30	Z30	X31	Y31	Z31	X32	Y32	Z32	X33	Y33	Z33	X34	Y34	Z34	X35	Y35	Z35	X36	Y36	Z36	X37	Y37	Z37	X38	Y38	Z38	X39	Y39	Z39	X40	Y40	Z40	X41	Y41	Z41	X42	Y42	Z42	X43	Y43	Z43	X44	Y44	Z44	X45	Y45	Z45	X46	Y46	Z46	X47	Y47	Z47	X48	Y48	Z48	X49	Y49	Z49	X50	Y50	Z50	X51	Y51	Z51	X52	Y52	Z52	X53	Y53	Z53	

180	1.79	-1129.91455078125	972.7146606445312	-455.1424865722656	-1070.708374023438	968.1212768554688	-564.2167358398438	-1101.952026367188	1042.454345703125	-515.6275634765625	-891.9633178710938	1193.746704101562	-435.0190124511719	-1112.68359375	1147.8056640625	-514.0187377929688	-1062.0341796875	1375.218383789062	-490.7686462402344	-921.0942993164062	1290.237182617188	-444.4683837890625	-1142.134399414062	1256.010009765625	-428.802978515625	-1060.152954101562	1324.453491210938	-583.5496826171875	-942.98779296875	1365.181396484375	-620.5399780273438	-940.0516967773438	1240.039794921875	-684.4169311523438	-933.100341796875	1029.255615234375	-708.5242919921875	-1026.516357421875	1025.75634765625	-674.3882446289062	-869.6242065429688	842.927978515625	-640.2003784179688	-927.45703125	808.2667236328125	-705.7341918945312	-919.566650390625	947.2255859375	-703.6643676757812	-874.295654296875	686.0338134765625	-627.4591674804688	-907.3799438476562	753.192626953125	-691.3757934570312	-855.7321166992188	764.004150390625	-653.99658203125	-1058.522216796875	1365.005981445312	-332.7035522460938	-1094.701538085938	1297.543823242188	-284.9087219238281	-1102.948486328125	1029.4208984375	-241.3988342285156	-1146.982177734375	1014.003845214844	-289.4849853515625	-995.2003173828125	829.0855712890625	-261.2320861816406	-1076.633666992188	805.1182861328125	-226.0866851806641	-1098.898193359375	974.292236328125	-234.4041290283203	-992.3020629882812	669.2048950195312	-263.9346618652344	-983.74169921875	734.5440673828125	-237.3992767333984	-1053.625854492188	731.3819580078125	-223.7943725585938	-1053.970825195312	1521.750366210938	-396.8686218261719	-874.734130859375	1586.131591796875	-461.3834533691406	-934.847412109375	1572.730102539062	-349.3580932617188	-992.4887084960938	1535.245971679688	-543.5208740234375	-920.2293090820312	890.3942260742188	-636.2345581054688	-1090.70556640625	876.4037475585938	-296.5035705566406	-968.7467651367188	916.5626220703125	-312.7197265625	-868.4862670898438	922.7205810546875	-532.9116821289062	-942.0703125	466.5582275390625	-574.6968383789062	-912.0000610351562	623.2061157226562	-597.1780395507812	-1066.45166015625	49.82420349121094	-587.9892578125	-978.9931030273438	316.2676696777344	-584.6061401367188	-899.862548828125	38.79003143310547	-466.3448181152344	-983.0169677734375	42.67024230957031	-461.1613464355469	-960.5945434570312	44.08891677856445	-560.9490966796875	-1131.375854492188	47.93373489379883	-543.10400390625	-1081.4697265625	489.7574768066406	-300.1800537109375	-1068.478637695312	748.555908203125	-276.8848266601562	-1172.550170898438	54.16462326049805	-326.658203125	-1087.301147460938	342.6580505371094	-304.0136413574219	-972.69384765625	44.53322982788086	-289.9446411132812	-1019.337280273438	48.1975212097168	-350.1324462890625	-1074.558837890625	47.24169158935547	-269.6610717773438	-1204.07470703125	45.86294937133789	-390.0008850097656	
181	1.8	-1129.369018554688	972.6876220703125	-456.5946655273438	-1070.184936523438	968.0259399414062	-565.63720703125	-1100.702880859375	1042.857666015625	-516.967529296875	-890.5843505859375	1193.677124023438	-436.3483276367188	-1111.18603515625	1148.190673828125	-515.2028198242188	-1060.402709960938	1375.522094726562	-491.7550659179688	-919.6162109375	1290.200927734375	-445.5979919433594	-1140.746215820312	1256.338745117188	-429.9847717285156	-1058.591186523438	1324.895385742188	-584.630859375	-941.3707275390625	1365.518920898438	-621.5310668945312	-938.7300415039062	1240.499267578125	-685.6810913085938	-932.3175048828125	1029.738403320312	-710.172607421875	-1025.793090820312	1026.450805664062	-676.1478271484375	-869.3248901367188	843.3500366210938	-641.6995239257812	-927.0498046875	808.7713623046875	-707.4335327148438	-918.936767578125	947.7227783203125	-705.330810546875	-874.2943115234375	686.4130859375	-628.9595336914062	-907.1992797851562	753.7260131835938	-693.0501708984375	-855.5265502929688	764.406005859375	-655.4710083007812	-1056.912963867188	1365.022216796875	-333.7013854980469	-1093.168579101562	1297.522583007812	-285.9881286621094	-1101.673217773438	1029.422485351562	-242.5694580078125	-1145.760986328125	1014.05517578125	-290.6435852050781	-994.2318725585938	828.976806640625	-262.4015197753906	-1075.724243164062	805.1069946289062	-227.3330230712891	-1097.701171875	974.2935791015625	-235.5653686523438	-991.4806518554688	669.0753784179688	-265.0210266113281	-982.9097290039062	734.420166015625	-238.5039367675781	-1052.805908203125	731.3358154296875	-225.0085601806641	-1052.405395507812	1521.514770507812	-397.2984008789062	-873.19384765625	1586.247924804688	-461.466064453125	-933.3448486328125	1572.3466796875	-349.5187377929688	-990.8746948242188	1535.649291992188	-543.885986328125	-919.6023559570312	889.9719848632812	-637.3362426757812	-1090.618896484375	876.6752319335938	-297.7886047363281	-968.5499877929688	917.109130859375	-313.9951782226562	-867.8853149414062	922.61181640625	-534.0278930664062	-941.6034545898438	466.2732849121094	-575.2258911132812	-911.3516845703125	622.943115234375	-597.8180541992188	-1066.434692382812	49.71456909179688	-588.0956420898438	-978.54833984375	316.0088195800781	-584.9129638671875	-899.8876953125	38.78542327880859	-466.3439331054688	-983.013916015625	42.68759155273438	-461.1841735839844	-960.5504760742188	44.01682281494141	-560.978759765625	-1131.416137695312	47.93253326416016	-543.1884155273438	-1076.73388671875	489.9729614257812	-300.3199462890625	-1066.919555664062	748.8574829101562	-277.9175720214844	-1172.09716796875	55.30571746826172	-326.7033081054688	-1083.107177734375	342.6945495605469	-303.5508117675781	-972.5882568359375	44.53214263916016	-289.8023376464844	-1019.089965820312	48.20083236694336	-350.0939331054688	-1074.28369140625	47.55568695068359	-269.6413269042969	-1203.703247070312	47.51549530029297	-390.0816650390625	
182	1.81	-1128.791625976562	972.7239990234375	-458.0048828125	-1069.608520507812	968.0267333984375	-567.0029296875	-1099.471435546875	1043.266235351562	-518.2512817382812	-889.1863403320312	1193.637451171875	-437.5975036621094	-1109.682739257812	1148.585327148438	-516.375732421875	-1058.741088867188	1375.838500976562	-492.73095703125	-918.1060180664062	1290.1904296875	-446.6748352050781	-1139.338012695312	1256.691162109375	-431.1560668945312	-1056.97265625	1325.339721679688	-585.6829223632812	-939.686767578125	1365.857177734375	-622.478271484375	-937.358642578125	1240.981323242188	-686.927978515625	-931.4977416992188	1030.250854492188	-711.8101806640625	-1025.031494140625	1027.181640625	-677.9144897460938	-869.0372924804688	843.7809448242188	-643.1893920898438	-926.614990234375	809.2883911132812	-709.1663208007812	-918.2781372070312	948.2302856445312	-706.9968872070312	-874.3202514648438	686.8013305664062	-630.4942016601562	-906.982666015625	754.2733764648438	-694.764892578125	-855.3203125	764.7877807617188	-656.9666748046875	-1055.307495117188	1365.067016601562	-334.6841430664062	-1091.64697265625	1297.531616210938	-287.0605163574219	-1100.378540039062	1029.439331054688	-243.7672424316406	-1144.50341796875	1014.123168945312	-291.8456115722656	-993.2513427734375	828.8848876953125	-263.5734558105469	-1074.814697265625	805.1136474609375	-228.6138153076172	-1096.487182617188	974.3172607421875	-236.7580718994141	-990.6209716796875	668.9649047851562	-266.0879211425781	-982.0580444335938	734.3256225585938	-239.5957946777344	-1051.980224609375	731.3208618164062	-226.2393341064453	-1050.8408203125	1521.28515625	-397.7336120605469	-871.6585693359375	1586.395141601562	-461.5184631347656	-931.8630981445312	1571.980834960938	-349.6629333496094	-989.235107421875	1536.064575195312	-544.239990234375	-918.9844970703125	889.6258544921875	-638.393310546875	-1090.418334960938	876.8687133789062	-298.9878845214844	-968.3635864257812	917.6058959960938	-315.2173767089844	-867.2579345703125	922.4880981445312	-535.0745849609375	-941.2772216796875	466.0568542480469	-575.8883056640625	-910.8524780273438	622.7159423828125	-598.5770263671875	-1066.421508789062	49.60746765136719	-588.1983032226562	-978.19580078125	315.8085632324219	-585.3101806640625	-899.9105834960938	38.79197311401367	-466.3687744140625	-982.9940795898438	42.72671127319336	-461.2175598144531	-960.5028686523438	43.92006301879883	-561.0281982421875	-1131.449462890625	47.93445587158203	-543.2713012695312	-1071.666137695312	490.2265930175781	-300.4150695800781	-1065.384155273438	749.1345825195312	-278.9389953613281	-1171.569580078125	56.67078399658203	-326.78076171875	-1078.65966796875	342.8208312988281	-302.9634094238281	-972.4642944335938	44.53015518188477	-289.6007080078125	-1018.759643554688	48.25017166137695	-350.0395812988281	-1073.96826171875	47.96277618408203	-269.6150207519531	-1203.235229492188	49.44697952270508	-390.2030029296875	
183	1.82	-1128.1865234375	972.8129272460938	-459.3633422851562	-1068.984497070312	968.1121215820312	-568.3058471679688	-1098.26171875	1043.68603515625	-519.4713134765625	-887.7747192382812	1193.621826171875	-438.758544921875	-1108.195068359375	1148.994140625	-517.5299682617188	-1057.050048828125	1376.166259765625	-493.6852416992188	-916.5657958984375	1290.20068359375	-447.6889953613281	-1137.911865234375	1257.0703125	-432.3045043945312	-1055.303100585938	1325.786987304688	-586.6954956054688	-937.9393310546875	1366.192993164062	-623.3717041015625	-935.931640625	1241.481201171875	-688.137451171875	-930.6297607421875	1030.786865234375	-713.4269409179688	-1024.222534179688	1027.939819335938	-679.6752319335938	-868.7520141601562	844.2033081054688	-644.6766967773438	-926.14892578125	809.807373046875	-710.93115234375	-917.5856323242188	948.7408447265625	-708.6535034179688	-874.3853759765625	687.1851806640625	-632.0825805664062	-906.7324829101562	754.8176879882812	-696.5228271484375	-855.122314453125	765.1337890625	-658.4844360351562	-1053.703125	1365.137084960938	-335.638427734375	-1090.137084960938	1297.57373046875	-288.1153259277344	-1099.079711914062	1029.472412109375	-244.9877624511719	-1143.22314453125	1014.211547851562	-293.0872497558594	-992.2526245117188	828.8192749023438	-264.7286376953125	-1073.90087890625	805.1386108398438	-229.9228668212891	-1095.268798828125	974.3637084960938	-237.9800872802734	-989.6954956054688	668.8881225585938	-267.1048278808594	-981.1727905273438	734.2762451171875	-240.6519317626953	-1051.137084960938	731.3390502929688	-227.47509765625	-1049.2744140625	1521.0634765625	-398.1719665527344	-870.1215209960938	1586.5712890625	-461.5421447753906	-930.3963012695312	1571.640869140625	-349.7950134277344	-987.5673217773438	1536.481201171875	-544.5816040039062	-918.3756103515625	889.3480834960938	-639.40576171875	-1090.09716796875	877.0231323242188	-300.1000366210938	-968.1648559570312	918.058837890625	-316.3903198242188	-866.6002197265625	922.3551635742188	-536.0626220703125	-941.0527954101562	465.9108276367188	-576.6505126953125	-910.4859008789062	622.52294921875	-599.4373168945312	-1066.412109375	49.50288391113281	-588.2957153320312	-977.9402465820312	315.6560668945312	-585.7943725585938	-899.93017578125	38.80792236328125	-466.4156494140625	-982.9518432617188	42.78998565673828	-461.2583312988281	-960.4547729492188	43.79924392700195	-561.0979614257812	-1131.47412109375	47.93854904174805	-543.3524780273438	-1066.289672851562	490.5528259277344	-300.4414978027344	-1063.874145507812	749.3995971679688	-279.9430236816406	-1170.966918945312	58.27706909179688	-326.8907165527344	-1073.968505859375	343.0577697753906	-302.2519226074219	-972.3192138671875	44.52384185791016	-289.3317565917969	-1018.33154296875	48.36148071289062	-349.9654235839844	-1073.623168945312	48.46943664550781	-269.5838012695312	-1202.653076171875	51.67009353637695	-390.3704223632812	
